<svg width="26" height="24" viewBox="0 0 26 24" fill="none" xmlns="http://www.w3.org/2000/svg">
<rect x="4" y="5" width="16" height="5" rx="1" stroke="#F9FAFB" stroke-width="2" stroke-linejoin="round"/>
<path d="M10 16C10 15.0572 10 14.5858 10.2929 14.2929C10.5858 14 11.0572 14 12 14H23C23.9428 14 24.4142 14 24.7071 14.2929C25 14.5858 25 15.0572 25 16V17C25 17.9428 25 18.4142 24.7071 18.7071C24.4142 19 23.9428 19 23 19H12C11.0572 19 10.5858 19 10.2929 18.7071C10 18.4142 10 17.9428 10 17V16Z" stroke="#F9FAFB" stroke-width="2" stroke-linejoin="round"/>
</svg>
